<?xml version="1.0" encoding="utf-8"?>
<!-- Generator: Adobe Illustrator 18.1.1, SVG Export Plug-In . SVG Version: 6.00 Build 0)  -->
<!DOCTYPE svg PUBLIC "-//W3C//DTD SVG 1.1//EN" "http://www.w3.org/Graphics/SVG/1.1/DTD/svg11.dtd">
<svg version="1.1" id="Layer_1" xmlns="http://www.w3.org/2000/svg" xmlns:xlink="http://www.w3.org/1999/xlink" x="0px" y="0px"
	 viewBox="-429 231 100 100" enable-background="new -429 231 100 100" xml:space="preserve">
<g>
	<g>
		<path d="M-367.9,247.3c-5.4-5.4-14.2-5.4-19.6,0c-5.4,5.4-5.4,14.2,0,19.6c0,0,9.8,9.6,9.8,20.7c0-11.1,9.8-20.7,9.8-20.7
			C-362.5,261.5-362.5,252.7-367.9,247.3z M-377.7,262.7c-3.1,0-5.5-2.5-5.5-5.6c0-3.1,2.5-5.6,5.6-5.6c3.1,0,5.6,2.5,5.6,5.6
			C-372.1,260.2-374.6,262.7-377.7,262.7z"/>
	</g>
</g>
</svg>
